PathFileType	4	(X/Y/Z)	Patient4_TMGait_0pt2_02_left_02.trc.trc
DataRate	CameraRate	NumFrames	NumMarkers	Units	OrigDataRate	OrigDataStartFrame	OrigNumFrames
42.813455657492	42.813455657492	6	33	mm	42.813455657492	53	       141
Frame#	Time	R.Midfoot.Superior			Sacral			L.Shoulder			Chest			R.Shoulder			Neck			R.ASIS			L.ASIS			R.Thigh.Superior			R.Thigh.Lateral			R.Thigh.Inferior			R.Patella			L.Thigh.Superior			L.Thigh.Lateral			L.Thigh.Inferior			L.Patella			L.Shank.Superior			L.Shank.Lateral			L.Shank.Inferior			R.Shank.Superior			R.Shank.Lateral			R.Shank.Inferior			R.Heel			R.Midfoot.Lateral			R.Toe			L.Heel			L.Midfoot.Lateral			L.Midfoot.Superior			L.Toe			L.Elbow			L.Wrist			R.Elbow			R.Wrist			
		X1	Y1	Z1	X2	Y2	Z2	X3	Y3	Z3	X4	Y4	Z4	X5	Y5	Z5	X6	Y6	Z6	X7	Y7	Z7	X8	Y8	Z8	X9	Y9	Z9	X10	Y10	Z10	X11	Y11	Z11	X12	Y12	Z12	X13	Y13	Z13	X14	Y14	Z14	X15	Y15	Z15	X16	Y16	Z16	X17	Y17	Z17	X18	Y18	Z18	X19	Y19	Z19	X20	Y20	Z20	X21	Y21	Z21	X22	Y22	Z22	X23	Y23	Z23	X24	Y24	Z24	X25	Y25	Z25	X26	Y26	Z26	X27	Y27	Z27	X28	Y28	Z28	X29	Y29	Z29	X30	Y30	Z30	X31	Y31	Z31	X32	Y32	Z32	X33	Y33	Z33	

53	5.384571428571	811.691868069798	116.382280882857	568.233663152217	781.785174268118	998.774545425014	364.100606164953	998.264411404776	1416.158490694465	188.463472787521	1095.413533858856	1333.192555499031	346.699834232031	1022.027450754075	1409.550014615305	522.627607445855	982.466563080250	1475.332804705171	347.848734317944	1005.726027156589	920.136899307955	483.768518568673	996.783751834005	939.835182123865	211.431602829176	1045.413782975082	720.420846379939	469.548345279612	970.208117162475	619.563670993036	547.875390087944	1048.583349545526	555.087530859136	474.334097137453	1043.921859763048	451.247630323862	502.632180642003	1058.681747670783	744.922908836603	262.356056665640	993.684381135774	610.938200199895	208.383396667213	1083.728445303489	549.993823320627	284.722693339702	1091.920193525850	472.777882977990	294.991069147331	1049.170782712790	398.564500780975	290.515953708877	944.374451632970	297.708377716804	241.107880324237	970.419451757720	183.675321679192	317.118956702656	968.906475835685	384.403112061003	517.715845300570	852.757659644074	345.368554986448	587.074989816745	839.606547321215	232.951162579611	544.350382474100	637.899117886304	154.016254938710	531.098075266328	705.282227806054	103.887874723072	603.390616044057	888.743024563880	33.506417579639	591.805296105065	820.037807874031	41.693757291512	357.561794708955	894.478205449761	37.234338989689	278.283580938946	979.462837371304	95.485004514325	306.243205744656	1106.415421898039	39.598247465879	276.695348776192	1006.798468433887	1095.584616347072	11.096449935227	1101.319866457339	857.546281644780	-40.321484766852	1053.614194048456	1057.005709806497	632.904437856352	1206.023434605457	850.043731193161	654.418742633547	
54	5.407928571429	812.171572697751	120.505855860525	567.013008045301	779.974450679951	995.735130587509	358.831986452144	999.527537065307	1414.143035702477	186.649044292012	1093.919746921551	1330.619591286930	346.271385332255	1017.607654100281	1406.029832259559	521.444461331186	981.322870004986	1472.917742524179	346.233534997246	1003.250147501509	918.367299789146	480.613401774458	996.694182410533	937.668369275513	208.135050436892	1048.870199364442	721.533112473908	465.956283933230	977.107027473657	619.051234736405	545.088585895302	1057.459451045439	556.294726574129	471.425211599460	1054.552237902004	451.042870809086	500.699425487733	1059.226271722925	743.154687240823	259.643876344326	994.853584535958	608.704129227884	206.213628935902	1084.625139497620	548.321239596462	283.546028758700	1092.873244209777	470.810660116765	294.292994764209	1049.190029227215	396.454814661069	289.898030217027	943.356616289261	296.650074963401	240.293513678734	967.335671787976	182.634323544928	316.892622564881	977.794164229599	384.561199132239	515.692853332235	859.917055131140	349.505223995946	584.506645079191	843.892332443585	237.059092725425	542.688222295776	640.179624918507	165.704196032217	528.413574082975	704.802440018770	112.688996694273	601.195183382187	884.861165467975	32.843722793071	591.416181460157	815.389005166133	41.726460624562	357.403015800806	889.856470378991	37.151800564968	278.171229925402	974.843442653800	95.345655857197	306.233402211517	1101.791971390836	39.507143813731	276.671646158284	1022.261090134902	1094.080932531022	9.290019216708	1131.708633750469	862.490044622438	-40.290586107801	1028.789000228191	1051.165957563199	629.216490972522	1157.580685196118	828.093895970123	651.835163682682	
55	5.431285714286	813.473849685853	125.114918289808	565.319282910564	778.198522030927	993.403334649939	354.038861705671	1000.908073605650	1412.658205330488	185.102230060725	1092.429097089634	1328.705405084040	346.163442136357	1013.047075869617	1403.336975342598	520.402032026239	980.184016947273	1471.111338859113	344.760528204998	1000.811687496384	917.242571223476	477.846333667980	996.533541551476	936.072545478349	205.214046528991	1052.116647851627	723.545748122018	462.602014821091	983.872838968720	619.410636590037	542.566744832367	1066.060494503779	558.480518664960	468.744619635469	1064.953357156647	451.886297768587	498.872755781804	1059.284906934225	741.580598595541	256.993165545573	994.981170443908	606.921329090670	204.100101574360	1084.433502520796	546.826060934358	282.195450678942	1092.595612595095	469.168213136061	293.406886105116	1048.184006012650	394.751227341831	289.122669441467	941.553187667888	295.744057951890	239.376567560878	963.889813760968	181.810209410440	316.546968822445	986.631289523403	385.585333517266	513.670936991032	867.133540858761	354.056800883187	581.796246379898	848.607275808933	241.599606516134	540.720610365747	643.233132096100	177.189660917567	525.125030145817	705.214828408985	121.614058509927	598.500206576852	882.142053130719	32.294635898020	590.771892001249	810.712386831327	41.759160346914	357.220475261466	885.214820750954	37.060904765475	278.036578113968	970.197222044370	95.220880722518	306.157769544782	1097.149065010789	39.434742488881	276.641893060977	1037.203935237186	1093.659207233793	8.061536499044	1162.069264083182	869.708427408730	-38.694110545140	1002.649460343713	1047.621720277828	625.436342314400	1107.218284152218	811.478775042003	647.621736735665	
56	5.454642857143	815.835932767954	129.927756761751	563.271201862987	776.449174266348	991.929679779264	349.702746217063	1002.471206791315	1411.827207782178	183.848458302124	1090.956333764491	1327.575426469379	346.417860173484	1008.345481112277	1401.643461538948	519.498801262412	979.067516621465	1470.033138723779	343.436198253310	998.367131382566	916.890592095791	475.506974030604	996.320554482756	935.144596024639	202.710143022432	1054.958113904309	726.473905143727	459.583476313723	990.201637494095	620.694463875232	540.330670655569	1074.061598713040	561.637885648175	466.375715728350	1074.787015196523	453.827718907159	497.240459978004	1058.812146597079	740.274286564421	254.492351425292	994.025374172462	605.672565611142	202.089356784517	1083.083946893099	545.574589169712	280.728955901804	1091.006724260701	467.919156671663	292.370221643367	1046.076832395755	393.523778716865	288.214641319578	938.910884995871	295.038292423275	238.376585118730	960.058681715519	181.240936911107	316.096413537847	995.170188842277	387.477702477572	511.747397365576	874.203745109446	358.796676099484	579.059978166595	853.737839935594	246.304569262910	538.557135683895	647.094487467996	187.657550383175	521.446815108914	706.776878994409	130.019752586844	595.474888243624	881.141940240678	31.964612386760	589.885631711444	806.006423044961	41.802569285761	357.020165924262	880.552515489352	36.972206567019	277.885901098976	965.527804889319	95.119359466545	306.017651378326	1092.485867818184	39.376252418536	276.606875124434	1051.577886754764	1094.453132694649	7.309435446220	1192.049051111110	879.355333515211	-35.634782202185	975.535313738790	1046.664092070295	621.528878353495	1055.953116341681	800.470807487206	641.990459984591	
57	5.478000000000	819.542468649780	134.576059833661	561.068928837185	774.718503083267	991.390880137886	345.777690413431	1004.264029696170	1411.709939911384	182.909690684367	1089.501562045786	1327.291680543375	347.066794684794	1003.498342367293	1401.047258449017	518.727464599274	977.977959753307	1469.740498529630	342.267995992371	995.857428568497	917.373334908045	473.627184446977	996.085798331166	934.923660203792	200.661786022019	1057.201511433785	730.244910237293	457.004156917694	995.779957306393	622.871003267125	538.407394929013	1081.132549873677	565.668275754524	464.399831269422	1083.712216055884	456.836923332365	495.892144233915	1057.793488980128	739.280788000110	252.241828968978	992.012120624135	604.999381862544	200.230704775030	1080.568419781109	544.609435187918	279.225800675147	1088.094059119705	467.101457641853	291.245970630224	1042.854869103211	392.806500731619	287.215769359639	935.425446712732	294.560893943604	237.322881576649	955.839115406629	180.942686011201	315.565011767100	1003.178782045103	390.159751217260	510.036947120672	880.968261911888	363.419057482240	576.465034258121	859.313733959421	250.830835031234	536.370334465332	651.852109947995	196.216400584715	517.701560397648	709.802541466885	137.182617464813	592.383065936305	882.468814058948	31.948396637441	588.831538604772	801.270113097150	41.860563322256	356.808099500533	875.869355329222	36.892149146631	277.725009497792	960.837776174477	95.046470232763	305.819566278801	1087.802645954118	39.328688152688	276.568523905410	1065.378961637468	1096.511447664562	6.949532214871	1221.296233825029	891.436438439982	-31.233903634490	947.881339405922	1048.439006362202	617.455757724369	1004.833917181273	795.039963436376	635.232208250833	
58	5.501357142857	824.907567731319	138.652568779515	558.979761437867	773.001177716052	991.785391212189	342.197002873116	1006.310688402329	1412.296555993492	182.302257684555	1088.051359527890	1327.847242537752	348.128804988989	998.501524431209	1401.565106323838	518.074407387496	976.908381205246	1470.225135009660	341.261612368512	993.215048094268	918.679992856917	472.230770121100	995.868355223563	935.389508408317	199.103415390764	1058.671302880132	734.704283550738	454.961416520410	1000.309356763308	625.827665429079	536.836484668692	1086.961373892792	570.389022404637	462.890596026684	1091.407546469663	460.806402557464	494.908491853422	1056.242896440639	738.610440095116	250.335607431361	989.021148051539	604.899369012254	198.565594793686	1076.932467850991	543.944172513556	277.768086660814	1083.904781167825	466.719122777091	290.105751679628	1038.559751650787	392.595620874838	286.173665979192	931.134859042803	294.316750939801	236.248174924548	951.245253201129	180.909180850512	314.981768014227	1010.455596432493	393.483212748011	508.659799074984	887.328460810031	367.569914712859	574.214022647784	865.412377193468	254.800365288920	534.379864751239	657.668167891819	202.005639300002	514.282508776331	714.647285898262	142.392873445244	589.558079718524	886.719371214476	32.309897720228	587.755158052562	796.503235711887	41.929064518223	356.590318703248	871.165421417117	36.822309886153	277.558796471679	956.128191235219	95.003630654492	305.574353464327	1083.100646957803	39.291064101709	276.529676208540	1078.637544825224	1099.794792874753	6.923415568634	1249.478892759129	905.803759567126	-25.632812960389	920.187058396172	1052.925380957588	613.189651967500	954.884103719869	794.864049368327	627.685918516832	
